<svg id="Layer_1" data-name="Layer 1" xmlns="http://www.w3.org/2000/svg" viewBox="0 0 966.76 2879.7"><title>Logo_AAU_Racing</title><polyline points="483.92 461.72 374.23 1445.16 389.82 1013.53 132.54 1593.29 288.47 1842.78 85.76 1710.24 366.43 2762.76 413.21 2622.42 374.23 2879.7 0 1686.85 116.95 1406.18 0 1078.73 210.5 1226.86 389.82 876.02 483.38 2.82 483.38 0 576.93 873.2 756.25 1224.04 966.76 1075.91 849.81 1403.36 966.76 1684.03 592.53 2876.88 553.55 2619.6 600.32 2759.93 881 1707.42 678.29 1839.95 834.22 1590.47 576.93 1021.33 592.53 1442.34 482.83 458.9"/></svg>